<svg width="17" height="17" viewBox="0 0 17 17" fill="none" xmlns="http://www.w3.org/2000/svg">
<path d="M0.329611 8.32396C0.339629 3.90571 3.93134 0.319003 8.33958 0.334031C12.7679 0.34906 16.3495 3.94077 16.3295 8.34901C16.3095 12.7723 12.7378 16.3339 8.32956 16.3289C3.9113 16.3289 0.319592 12.7372 0.329611 8.32396ZM9.12605 6.08478C9.12605 5.49868 9.13106 4.91259 9.12104 4.32148C9.11603 3.86563 8.76036 3.52499 8.31954 3.53C7.88373 3.53501 7.53307 3.87064 7.53307 4.31647C7.52806 5.65898 7.52305 7.00149 7.53808 8.344C7.53808 8.51933 7.62324 8.73974 7.74346 8.86497C8.53995 9.69152 9.36149 10.498 10.178 11.3095C10.3934 11.5249 10.6689 11.58 10.9595 11.4899C11.5456 11.3095 11.7159 10.5982 11.2751 10.1474C10.6138 9.47611 9.94257 8.80987 9.27132 8.14863C9.1561 8.03843 9.11603 7.92822 9.12104 7.77293C9.13106 7.21188 9.12605 6.64582 9.12605 6.08478Z" fill="#FF8400"/>
</svg>
