<svg width="17" height="17" viewBox="0 0 17 17" fill="none" xmlns="http://www.w3.org/2000/svg">
<path d="M16.3296 7.52952C16.3296 7.60947 16.3296 7.67443 16.3296 7.74438C16.3296 9.76807 16.3296 11.7967 16.3296 13.8204C16.3296 15.0047 15.6051 15.959 14.4958 16.2239C14.2909 16.2738 14.0761 16.2888 13.8662 16.2888C10.1786 16.2938 6.49598 16.2938 2.80838 16.2888C1.5492 16.2888 0.584826 15.4843 0.369966 14.2701C0.344982 14.1352 0.344982 13.9953 0.344982 13.8604C0.344982 11.8117 0.344982 9.75807 0.344982 7.7094C0.344982 7.65444 0.349979 7.59948 0.354976 7.53452C5.67152 7.52952 10.9831 7.52952 16.3296 7.52952Z" fill="#FF8400"/>
<path d="M13.1317 2.72764C13.4015 2.72764 13.6463 2.72764 13.8912 2.72764C15.2953 2.73764 16.3196 3.76197 16.3296 5.16606C16.3296 5.4059 16.3296 5.65074 16.3296 5.90558C10.9981 5.90558 5.68151 5.90558 0.359973 5.90558C0.265034 4.91622 0.354976 3.99182 1.17944 3.29727C1.58418 2.95749 2.04887 2.75762 2.57853 2.73764C2.88833 2.72265 3.19813 2.73764 3.53291 2.73764C3.53291 2.45782 3.53291 2.19799 3.53291 1.93816C3.53291 1.68332 3.53291 1.42849 3.53291 1.17365C3.53791 0.688968 3.86769 0.344193 4.3174 0.334199C4.7771 0.324206 5.12687 0.663985 5.13687 1.14867C5.14686 1.59838 5.13687 2.04808 5.13687 2.4928C5.13687 2.56275 5.13687 2.62771 5.13687 2.71265C7.27048 2.71265 9.3891 2.71265 11.5277 2.71265C11.5277 2.56275 11.5277 2.42284 11.5277 2.28293C11.5277 1.90818 11.5227 1.53342 11.5277 1.15866C11.5377 0.673978 11.8775 0.334199 12.3372 0.334199C12.7969 0.339196 13.1267 0.688968 13.1317 1.17365C13.1367 1.68332 13.1317 2.19299 13.1317 2.72764Z" fill="#FF8400"/>
</svg>
