<svg width="109" height="21" viewBox="0 0 109 21" fill="none" xmlns="http://www.w3.org/2000/svg">
<path d="M33.5405 9.12305H30.2593V15.334H28.1426V7.40918H33.5405V9.12305ZM34.5366 14.2939C34.5366 13.957 34.6489 13.6836 34.8735 13.4736C35.103 13.2637 35.3887 13.1587 35.7305 13.1587C36.0771 13.1587 36.3628 13.2637 36.5874 13.4736C36.8169 13.6836 36.9316 13.957 36.9316 14.2939C36.9316 14.626 36.8193 14.897 36.5947 15.1069C36.3701 15.312 36.082 15.4146 35.7305 15.4146C35.3838 15.4146 35.0981 15.312 34.8735 15.1069C34.6489 14.897 34.5366 14.626 34.5366 14.2939ZM41.8022 4.66992L44.5415 12.4043L47.2661 4.66992H50.1519V15.334H47.9473V12.4189L48.167 7.38721L45.2886 15.334H43.7798L40.9087 7.39453L41.1284 12.4189V15.334H38.9312V4.66992H41.8022ZM51.6021 11.2983C51.6021 10.5122 51.7534 9.81152 52.0562 9.19629C52.3589 8.58105 52.7935 8.10498 53.3599 7.76807C53.9312 7.43115 54.5928 7.2627 55.3447 7.2627C56.4141 7.2627 57.2856 7.58984 57.9595 8.24414C58.6382 8.89844 59.0166 9.78711 59.0947 10.9102L59.1094 11.4521C59.1094 12.668 58.77 13.6445 58.0913 14.3818C57.4126 15.1143 56.502 15.4805 55.3594 15.4805C54.2168 15.4805 53.3037 15.1143 52.6201 14.3818C51.9414 13.6494 51.6021 12.6533 51.6021 11.3936V11.2983ZM53.7188 11.4521C53.7188 12.2041 53.8604 12.7803 54.1436 13.1807C54.4268 13.5762 54.832 13.7739 55.3594 13.7739C55.8721 13.7739 56.2725 13.5786 56.5605 13.188C56.8486 12.7925 56.9927 12.1626 56.9927 11.2983C56.9927 10.561 56.8486 9.98975 56.5605 9.58447C56.2725 9.1792 55.8672 8.97656 55.3447 8.97656C54.8271 8.97656 54.4268 9.1792 54.1436 9.58447C53.8604 9.98486 53.7188 10.6074 53.7188 11.4521ZM63.709 13.7739C64.0996 13.7739 64.417 13.6665 64.6611 13.4517C64.9053 13.2368 65.0322 12.9512 65.042 12.5947H67.0269C67.022 13.1318 66.8755 13.625 66.5874 14.0742C66.2993 14.5186 65.9038 14.8652 65.4009 15.1143C64.9028 15.3584 64.3511 15.4805 63.7456 15.4805C62.6128 15.4805 61.7192 15.1216 61.0649 14.4038C60.4106 13.6812 60.0835 12.6851 60.0835 11.4155V11.2764C60.0835 10.0557 60.4082 9.08154 61.0576 8.354C61.707 7.62646 62.5981 7.2627 63.731 7.2627C64.7222 7.2627 65.5156 7.5459 66.1113 8.1123C66.7119 8.67383 67.0171 9.42334 67.0269 10.3608H65.042C65.0322 9.95068 64.9053 9.61865 64.6611 9.36475C64.417 9.10596 64.0947 8.97656 63.6943 8.97656C63.2012 8.97656 62.8276 9.15723 62.5737 9.51855C62.3247 9.875 62.2002 10.4561 62.2002 11.2617V11.4814C62.2002 12.2969 62.3247 12.8828 62.5737 13.2393C62.8228 13.5957 63.2012 13.7739 63.709 13.7739ZM71.3408 12.4116H70.4912V15.334H68.3745V7.40918H70.4912V10.3901H71.2456L72.9741 7.40918H75.6475L73.0547 11.1812L75.8892 15.334H73.0693L71.3408 12.4116ZM76.8267 15.334V7.40918H80.1372C81.2163 7.40918 82.0439 7.59961 82.6201 7.98047C83.1963 8.36133 83.4844 8.9082 83.4844 9.62109C83.4844 9.9873 83.3623 10.3169 83.1182 10.6099C82.8789 10.8979 82.5273 11.1201 82.0635 11.2764C82.6299 11.3838 83.0742 11.5962 83.3965 11.9136C83.7236 12.2261 83.8872 12.6118 83.8872 13.0708C83.8872 13.8081 83.6089 14.3696 83.0522 14.7554C82.5005 15.1411 81.6973 15.334 80.6426 15.334H76.8267ZM78.9434 12.0454V13.6421H80.6499C81.397 13.6421 81.7705 13.3809 81.7705 12.8584C81.7705 12.3262 81.4141 12.0552 80.7012 12.0454H78.9434ZM78.9434 10.6245H80.2544C80.9966 10.6147 81.3677 10.3755 81.3677 9.90674C81.3677 9.61865 81.2651 9.41357 81.0601 9.2915C80.8599 9.16943 80.5522 9.1084 80.1372 9.1084H78.9434V10.6245ZM89.7759 15.334C89.6782 15.1436 89.6074 14.9067 89.5635 14.6235C89.0508 15.1948 88.3843 15.4805 87.564 15.4805C86.7876 15.4805 86.1431 15.2559 85.6304 14.8066C85.1226 14.3574 84.8687 13.791 84.8687 13.1074C84.8687 12.2676 85.1787 11.623 85.7988 11.1738C86.4238 10.7246 87.3247 10.4976 88.5015 10.4927H89.4756V10.0386C89.4756 9.67236 89.3804 9.37939 89.1899 9.15967C89.0044 8.93994 88.709 8.83008 88.3037 8.83008C87.9473 8.83008 87.6665 8.91553 87.4614 9.08643C87.2612 9.25732 87.1611 9.4917 87.1611 9.78955H85.0444C85.0444 9.33057 85.186 8.90576 85.4692 8.51514C85.7524 8.12451 86.1528 7.81934 86.6704 7.59961C87.188 7.375 87.769 7.2627 88.4136 7.2627C89.3901 7.2627 90.1641 7.50928 90.7354 8.00244C91.3115 8.49072 91.5996 9.1792 91.5996 10.0679V13.5029C91.6045 14.2549 91.7095 14.8237 91.9146 15.2095V15.334H89.7759ZM88.0254 13.8618C88.3379 13.8618 88.626 13.7935 88.8896 13.6567C89.1533 13.5151 89.3486 13.3271 89.4756 13.0928V11.7305H88.6846C87.625 11.7305 87.061 12.0967 86.9927 12.8291L86.9854 12.9536C86.9854 13.2173 87.0781 13.4346 87.2637 13.6055C87.4492 13.7764 87.7031 13.8618 88.0254 13.8618Z" fill="black"/>
<path d="M27.3296 16.7988H92.4126V17.5312H27.3296V16.7988Z" fill="black"/>
<path d="M99.3296 9.33398L103.33 13.334L107.33 9.33398" stroke="#3F75F6" stroke-width="1.5" stroke-linecap="round" stroke-linejoin="round"/>
<path d="M5.41197 20.334C5.29218 20.2402 5.14113 20.1673 5.06301 20.0423C4.81301 19.6621 5.08905 19.1725 5.55259 19.1621C6.04738 19.1517 6.54218 19.1621 7.03176 19.1569C7.09426 19.1569 7.15676 19.1569 7.26093 19.1569C7.1828 19.0736 7.13593 19.0163 7.08384 18.9642C5.59947 17.4746 4.09426 16.0111 2.64113 14.4954C0.990093 12.7767 0.234885 10.6882 0.339051 8.30273C0.50051 4.51628 3.22447 1.31315 6.9328 0.526693C7.32863 0.443359 7.73488 0.396484 8.14113 0.333984C8.50572 0.333984 8.8703 0.333984 9.23488 0.333984C9.57343 0.386068 9.91718 0.417318 10.2505 0.485026C13.2297 1.11523 15.3807 2.81836 16.4536 5.66732C17.7245 9.04753 17.0266 12.1048 14.5266 14.7142C13.1463 16.1569 11.7088 17.5423 10.2974 18.9538C10.2401 19.0111 10.1776 19.0527 10.0734 19.1361C10.1828 19.1465 10.2297 19.1569 10.2766 19.1569C10.7661 19.1569 11.2505 19.1569 11.7401 19.1569C12.0838 19.1569 12.3182 19.3236 12.3807 19.61C12.4484 19.9069 12.3078 20.1465 11.9849 20.3027C11.9745 20.3079 11.9693 20.3184 11.9588 20.3288C9.77655 20.334 7.59426 20.334 5.41197 20.334ZM8.68801 18.9069C8.72447 18.8704 8.75051 18.8496 8.77655 18.8288C10.4484 17.1517 12.1359 15.4954 13.7922 13.7975C15.4797 12.0632 16.1516 9.96419 15.787 7.57357C15.1411 3.40169 11.0266 0.682943 6.94322 1.7194C4.02134 2.45898 1.89113 4.86523 1.54738 7.87044C1.29218 10.1048 1.9328 12.0788 3.4953 13.6986C5.17238 15.4329 6.89634 17.1204 8.59947 18.8288C8.62551 18.8548 8.65155 18.8757 8.68801 18.9069Z" fill="#3F75F6"/>
<path d="M14.5422 8.72453C14.5369 11.9693 11.9015 14.5995 8.67236 14.5891C5.4484 14.5839 2.82861 11.9537 2.82861 8.71932C2.82861 5.47974 5.45882 2.83911 8.68799 2.83911C11.9224 2.84432 14.5474 5.48495 14.5422 8.72453ZM13.3755 8.71411C13.3755 6.12557 11.2817 4.01619 8.6984 4.01099C6.10986 4.00578 4.00049 6.11515 4.00049 8.71411C4.00049 11.3027 6.09424 13.412 8.67757 13.4172C11.2661 13.4224 13.3755 11.3131 13.3755 8.71411Z" fill="#FF8400"/>
<path d="M8.05273 9.77146C8.12044 9.70376 8.17253 9.65688 8.22461 9.61001C9.05794 8.77146 9.89648 7.93813 10.7298 7.09959C10.8965 6.92771 11.0892 6.84959 11.3288 6.90167C11.7402 6.99021 11.9121 7.49021 11.6517 7.82875C11.61 7.88084 11.5632 7.92771 11.5215 7.96938C10.5371 8.95896 9.54753 9.94855 8.56315 10.9381C8.22461 11.2819 7.91211 11.2767 7.57357 10.9381C7.08919 10.4485 6.59961 9.96417 6.11523 9.47459C5.9069 9.26105 5.86523 9.00584 5.99023 8.76105C6.10482 8.5423 6.33919 8.41209 6.5944 8.46938C6.72461 8.50063 6.86003 8.57876 6.95898 8.67251C7.31836 9.01626 7.67253 9.38605 8.05273 9.77146Z" fill="#FF8400"/>
<path d="M1.06302 20.0422C1.14114 20.1672 1.29219 20.2401 1.41198 20.3339C3.59427 20.3339 13.7766 20.3339 15.9589 20.3287C15.9693 20.3182 15.9745 20.3078 15.9849 20.3026C16.3078 20.1464 16.4484 19.9068 16.3807 19.6099C16.3182 19.3235 16.0839 19.1568 15.7401 19.1568C14.7303 19.1568 2.57311 19.1405 1.5526 19.162C1.08906 19.1724 0.81302 19.662 1.06302 20.0422Z" fill="#FF8400"/>
</svg>
