<svg width="205" height="51" viewBox="0 0 205 51" fill="none" xmlns="http://www.w3.org/2000/svg">
<path d="M78.4096 21.474C78.2629 21.474 78.0896 21.4607 77.8896 21.434C77.6896 21.4073 77.4829 21.374 77.2696 21.334C77.0696 21.2807 76.8696 21.214 76.6696 21.134C76.4696 21.054 76.2896 20.954 76.1296 20.834L76.7096 18.134C76.8163 18.2007 76.9963 18.3007 77.2496 18.434C77.5029 18.5673 77.7829 18.634 78.0896 18.634C78.4363 18.634 78.7296 18.5407 78.9696 18.354C79.2096 18.1673 79.4029 17.8607 79.5496 17.434L74.3096 7.13398H77.9096L81.0296 14.174L83.9096 7.13398H87.3696L82.3696 17.934C82.0763 18.574 81.7896 19.1207 81.5096 19.574C81.2429 20.014 80.9563 20.374 80.6496 20.654C80.3429 20.934 80.0096 21.1407 79.6496 21.274C79.2896 21.4073 78.8763 21.474 78.4096 21.474ZM86.9204 14.114C86.9204 13.2607 87.0804 12.414 87.4004 11.574C87.7204 10.7207 88.187 9.96065 88.8004 9.29398C89.4137 8.62732 90.1604 8.08732 91.0404 7.67398C91.9204 7.26065 92.9204 7.05398 94.0404 7.05398C95.3737 7.05398 96.527 7.34065 97.5004 7.91398C98.487 8.48732 99.2204 9.23398 99.7004 10.154L97.1804 11.914C97.0204 11.5407 96.8137 11.234 96.5604 10.994C96.3204 10.7407 96.0537 10.5407 95.7604 10.394C95.467 10.234 95.167 10.1273 94.8604 10.074C94.5537 10.0073 94.2537 9.97398 93.9604 9.97398C93.3337 9.97398 92.787 10.1007 92.3204 10.354C91.8537 10.6073 91.467 10.934 91.1604 11.334C90.8537 11.734 90.627 12.1873 90.4804 12.694C90.3337 13.2007 90.2604 13.714 90.2604 14.234C90.2604 14.794 90.347 15.334 90.5204 15.854C90.6937 16.374 90.9404 16.834 91.2604 17.234C91.5937 17.634 91.987 17.954 92.4404 18.194C92.907 18.4207 93.427 18.534 94.0004 18.534C94.2937 18.534 94.5937 18.5007 94.9004 18.434C95.2204 18.354 95.5204 18.2407 95.8004 18.094C96.0937 17.934 96.3604 17.734 96.6004 17.494C96.8404 17.2407 97.0337 16.934 97.1804 16.574L99.8604 18.154C99.647 18.674 99.327 19.1407 98.9004 19.554C98.487 19.9673 98.007 20.314 97.4604 20.594C96.9137 20.874 96.3337 21.0873 95.7204 21.234C95.107 21.3807 94.507 21.454 93.9204 21.454C92.8937 21.454 91.947 21.2473 91.0804 20.834C90.227 20.4073 89.487 19.8473 88.8604 19.154C88.247 18.4607 87.767 17.674 87.4204 16.794C87.087 15.914 86.9204 15.0207 86.9204 14.114ZM106.277 12.054C106.104 13.854 105.884 15.3607 105.617 16.574C105.364 17.774 105.01 18.7407 104.557 19.474C104.104 20.194 103.524 20.7073 102.817 21.014C102.11 21.3207 101.23 21.474 100.177 21.474L100.077 18.594C100.557 18.5407 100.957 18.4273 101.277 18.254C101.61 18.0673 101.89 17.7207 102.117 17.214C102.344 16.694 102.53 15.9607 102.677 15.014C102.837 14.0673 102.99 12.8007 103.137 11.214L103.497 7.13398H112.717V21.334H109.437V10.014H106.477L106.277 12.054ZM118.214 21.474C118.068 21.474 117.894 21.4607 117.694 21.434C117.494 21.4073 117.288 21.374 117.074 21.334C116.874 21.2807 116.674 21.214 116.474 21.134C116.274 21.054 116.094 20.954 115.934 20.834L116.514 18.134C116.621 18.2007 116.801 18.3007 117.054 18.434C117.308 18.5673 117.588 18.634 117.894 18.634C118.241 18.634 118.534 18.5407 118.774 18.354C119.014 18.1673 119.208 17.8607 119.354 17.434L114.114 7.13398H117.714L120.834 14.174L123.714 7.13398H127.174L122.174 17.934C121.881 18.574 121.594 19.1207 121.314 19.574C121.048 20.014 120.761 20.374 120.454 20.654C120.148 20.934 119.814 21.1407 119.454 21.274C119.094 21.4073 118.681 21.474 118.214 21.474ZM137.366 10.014H131.706V21.334H128.406V7.13398H137.366V10.014ZM142.292 16.234L148.972 7.13398H151.412V21.334H148.132V12.454L141.532 21.334H138.992V7.13398H142.292V16.234ZM80.6496 44.454C80.0229 44.454 79.3963 44.3807 78.7696 44.234C78.1563 44.0873 77.5763 43.874 77.0296 43.594C76.4963 43.314 76.0163 42.9673 75.5896 42.554C75.1629 42.1407 74.8429 41.674 74.6296 41.154L77.3296 39.574C77.4763 39.934 77.6696 40.2407 77.9096 40.494C78.1496 40.734 78.4163 40.934 78.7096 41.094C79.0029 41.2407 79.3096 41.354 79.6296 41.434C79.9496 41.5007 80.2629 41.534 80.5696 41.534C81.0496 41.534 81.4896 41.454 81.8896 41.294C82.3029 41.134 82.6629 40.914 82.9696 40.634C83.2896 40.3407 83.5496 40.0073 83.7496 39.634C83.9629 39.2473 84.1229 38.834 84.2296 38.394H79.2096V35.774H84.1496C84.0429 35.4007 83.8896 35.0473 83.6896 34.714C83.5029 34.3673 83.2629 34.0673 82.9696 33.814C82.6763 33.5607 82.3296 33.3607 81.9296 33.214C81.5429 33.054 81.1029 32.974 80.6096 32.974C80.3029 32.974 79.9896 33.0073 79.6696 33.074C79.3629 33.1273 79.0563 33.234 78.7496 33.394C78.4563 33.5407 78.1829 33.7407 77.9296 33.994C77.6896 34.234 77.4896 34.5407 77.3296 34.914L74.8096 33.154C75.2896 32.234 76.0163 31.4873 76.9896 30.914C77.9763 30.3407 79.1563 30.054 80.5296 30.054C81.6763 30.054 82.6963 30.2607 83.5896 30.674C84.4829 31.0873 85.2296 31.6273 85.8296 32.294C86.4429 32.9607 86.9096 33.7207 87.2296 34.574C87.5496 35.414 87.7096 36.2607 87.7096 37.114C87.7096 38.0207 87.5363 38.914 87.1896 39.794C86.8563 40.674 86.3763 41.4607 85.7496 42.154C85.1363 42.8473 84.3963 43.4073 83.5296 43.834C82.6629 44.2473 81.7029 44.454 80.6496 44.454ZM101.315 40.694C101.315 41.3073 101.189 41.8407 100.935 42.294C100.682 42.7473 100.335 43.1273 99.8954 43.434C99.4554 43.7273 98.942 43.954 98.3554 44.114C97.7687 44.2607 97.1487 44.334 96.4954 44.334H89.5754V30.134H97.4754C97.9687 30.134 98.4154 30.2407 98.8154 30.454C99.2154 30.6673 99.5554 30.9473 99.8354 31.294C100.115 31.6273 100.329 32.014 100.475 32.454C100.635 32.8807 100.715 33.3207 100.715 33.774C100.715 34.454 100.542 35.094 100.195 35.694C99.862 36.294 99.3554 36.7473 98.6754 37.054C99.4887 37.294 100.129 37.7207 100.595 38.334C101.075 38.9473 101.315 39.734 101.315 40.694ZM97.9754 40.034C97.9754 39.594 97.8487 39.2207 97.5954 38.914C97.342 38.6073 97.022 38.454 96.6354 38.454H92.8554V41.554H96.4954C96.922 41.554 97.2754 41.414 97.5554 41.134C97.8354 40.854 97.9754 40.4873 97.9754 40.034ZM92.8554 32.934V35.874H96.0754C96.4354 35.874 96.7554 35.754 97.0354 35.514C97.3154 35.274 97.4554 34.9007 97.4554 34.394C97.4554 33.9273 97.3287 33.5673 97.0754 33.314C96.8354 33.0607 96.542 32.934 96.1954 32.934H92.8554ZM106.952 30.134H109.912L115.092 44.334H111.732L110.632 41.154H106.212L105.132 44.334H101.772L106.952 30.134ZM110.092 38.894L108.432 33.874L106.732 38.894H110.092ZM119.83 35.774H120.57L124.71 30.134H128.41L123.31 36.994L128.87 44.334H125.21L120.87 38.754H119.83V44.334H116.55V30.134H119.83V35.774ZM132.609 44.474C132.462 44.474 132.289 44.4607 132.089 44.434C131.889 44.4073 131.682 44.374 131.469 44.334C131.269 44.2807 131.069 44.214 130.869 44.134C130.669 44.054 130.489 43.954 130.329 43.834L130.909 41.134C131.015 41.2007 131.195 41.3007 131.449 41.434C131.702 41.5673 131.982 41.634 132.289 41.634C132.635 41.634 132.929 41.5407 133.169 41.354C133.409 41.1673 133.602 40.8607 133.749 40.434L128.509 30.134H132.109L135.229 37.174L138.109 30.134H141.569L136.569 40.934C136.275 41.574 135.989 42.1207 135.709 42.574C135.442 43.014 135.155 43.374 134.849 43.654C134.542 43.934 134.209 44.1407 133.849 44.274C133.489 44.4073 133.075 44.474 132.609 44.474ZM144.921 30.134H147.881L153.061 44.334H149.701L148.601 41.154H144.181L143.101 44.334H139.741L144.921 30.134ZM148.061 38.894L146.401 33.874L144.701 38.894H148.061ZM163.873 33.014H159.553V44.334H156.273V33.014H151.933V30.134H163.873V33.014ZM171.031 44.454C169.977 44.454 169.017 44.2473 168.151 43.834C167.284 43.4207 166.544 42.8807 165.931 42.214C165.317 41.534 164.837 40.7607 164.491 39.894C164.157 39.0273 163.991 38.134 163.991 37.214C163.991 36.2807 164.164 35.3807 164.511 34.514C164.871 33.6473 165.364 32.8873 165.991 32.234C166.631 31.5673 167.384 31.0407 168.251 30.654C169.117 30.254 170.064 30.054 171.091 30.054C172.144 30.054 173.104 30.2607 173.971 30.674C174.837 31.0873 175.577 31.634 176.191 32.314C176.804 32.994 177.277 33.7673 177.611 34.634C177.944 35.5007 178.111 36.3807 178.111 37.274C178.111 38.2073 177.931 39.1073 177.571 39.974C177.224 40.8407 176.737 41.6073 176.111 42.274C175.484 42.9273 174.737 43.454 173.871 43.854C173.004 44.254 172.057 44.454 171.031 44.454ZM167.331 37.254C167.331 37.8007 167.411 38.334 167.571 38.854C167.731 39.3607 167.964 39.814 168.271 40.214C168.591 40.614 168.984 40.934 169.451 41.174C169.917 41.414 170.451 41.534 171.051 41.534C171.677 41.534 172.224 41.4073 172.691 41.154C173.157 40.9007 173.544 40.574 173.851 40.174C174.157 39.7607 174.384 39.3007 174.531 38.794C174.691 38.274 174.771 37.7473 174.771 37.214C174.771 36.6673 174.691 36.1407 174.531 35.634C174.371 35.114 174.131 34.6607 173.811 34.274C173.491 33.874 173.097 33.5607 172.631 33.334C172.177 33.094 171.651 32.974 171.051 32.974C170.424 32.974 169.877 33.1007 169.411 33.354C168.957 33.594 168.571 33.914 168.251 34.314C167.944 34.714 167.711 35.174 167.551 35.694C167.404 36.2007 167.331 36.7207 167.331 37.254ZM180.066 44.334V30.134H186.126C186.806 30.134 187.426 30.274 187.986 30.554C188.559 30.834 189.046 31.2007 189.446 31.654C189.859 32.1073 190.179 32.6207 190.406 33.194C190.646 33.7673 190.766 34.3473 190.766 34.934C190.766 35.5607 190.653 36.1607 190.426 36.734C190.213 37.3073 189.906 37.8207 189.506 38.274C189.119 38.7273 188.646 39.0873 188.086 39.354C187.526 39.6207 186.906 39.754 186.226 39.754H183.346V44.334H180.066ZM183.346 36.894H186.026C186.413 36.894 186.746 36.7273 187.026 36.394C187.306 36.0607 187.446 35.574 187.446 34.934C187.446 34.6007 187.399 34.314 187.306 34.074C187.226 33.834 187.113 33.634 186.966 33.474C186.819 33.314 186.653 33.2007 186.466 33.134C186.279 33.054 186.093 33.014 185.906 33.014H183.346V36.894ZM195.487 30.134H198.447L203.627 44.334H200.267L199.167 41.154H194.747L193.667 44.334H190.307L195.487 30.134ZM198.627 38.894L196.967 33.874L195.267 38.894H198.627Z" fill="black"/>
<path d="M0.32959 15.2794C0.32959 14.9775 0.32959 14.6756 0.32959 14.3736C0.737193 13.7698 1.05422 13.0452 1.58259 12.5923C2.97146 11.4449 4.45091 10.4335 5.90016 9.37673C10.0366 6.35745 14.173 3.35327 18.2943 0.333984C18.3396 0.333984 18.4 0.333984 18.4453 0.333984C19.3511 3.12682 20.2719 5.91965 21.1626 8.71249C21.5249 9.82962 21.8722 10.1165 23.0195 10.1165C24.2725 10.1165 25.5406 10.1466 26.7936 10.1014C27.3673 10.0863 27.5182 10.2825 27.5182 10.8411C27.5182 11.8676 27.5484 12.8942 27.6692 13.9057C28.0315 17.0004 29.6921 19.2045 32.4095 20.6537C33.9644 21.484 34.7645 22.7521 34.7494 24.5335C34.7494 24.7751 34.7494 25.0619 34.8551 25.2431C35.7458 26.798 36.6666 28.3378 37.5875 29.8776C37.7838 30.2249 37.9951 30.557 38.2216 30.9344C39.384 29.47 40.1841 27.9604 40.3954 26.2394C40.9842 21.635 39.2934 17.8458 35.157 15.5512C34.1757 15.0077 33.4662 14.3133 33.3756 13.1508C33.3152 12.3809 33.285 11.611 33.2247 10.8411C33.1794 10.2825 33.4058 10.0863 33.9644 10.1014C35.5948 10.1316 37.2403 10.1165 38.8707 10.1165C39.9728 10.1165 40.3351 9.81453 40.6521 8.80307C41.0446 7.51987 41.4975 6.25178 41.9051 4.96858C42.4033 3.42875 42.8713 1.88891 43.3543 0.349081C43.46 0.349081 43.5506 0.349081 43.6563 0.349081C43.7619 0.469852 43.8676 0.635912 44.0035 0.726491C45.2716 1.64737 46.5246 2.58335 47.7927 3.48913C51.4309 6.131 55.0842 8.75778 58.7225 11.3996C59.7943 12.1847 60.9869 12.864 61.47 14.2378C61.47 14.6454 61.47 15.0379 61.47 15.4455C61.0322 16.7136 60.5492 17.9666 60.1415 19.2498C58.2847 25.0015 56.4429 30.7683 54.5861 36.5201C53.3935 40.2187 52.1857 43.9022 51.0082 47.6008C50.3893 49.5483 49.3627 50.288 47.3247 50.3333C46.7057 50.3484 46.3434 50.1219 46.0415 49.5483C44.3658 46.378 42.6448 43.2229 40.9389 40.0526C38.8556 36.1879 36.8176 32.3082 34.7041 28.4737C34.2059 27.5679 33.6021 26.6772 32.8472 25.9979C31.6244 24.8656 29.4506 24.9562 28.273 26.1941C28.9524 26.4961 29.5411 26.9942 30.1601 27.0093C31.4282 27.0546 31.7452 27.1301 32.3642 28.3529C31.1564 29.1077 29.8582 29.0926 28.6353 28.5492C26.8691 27.7642 26.0388 26.2998 25.9935 24.3826C25.9482 22.7672 24.6499 21.6199 23.0346 21.6652C21.4646 21.7105 20.3021 22.9786 20.287 24.458C20.2568 26.7678 20.9362 28.836 22.3401 30.6627C22.8987 31.3873 23.5479 32.0213 24.1366 32.6856C24.0309 32.912 23.9706 33.1234 23.8649 33.3196C20.8607 38.8298 17.8716 44.3551 14.8523 49.8502C14.7316 50.0766 14.3542 50.3182 14.1277 50.3031C12.8898 50.2276 11.7727 49.82 11.2292 48.3557C10.8216 47.2838 10.4744 46.1969 10.1272 45.1099C8.91944 41.3962 7.71173 37.6825 6.50402 33.9537C5.29631 30.2098 4.0735 26.481 2.85069 22.737C1.9751 20.2461 1.1448 17.7552 0.32959 15.2794Z" fill="#FF8400"/>
<path d="M16.7847 50.2729C19.819 44.6721 22.793 39.1619 25.7972 33.6064C27.5333 34.5122 29.36 34.7538 31.2319 34.5726C32.3642 34.4669 33.4964 34.2103 34.5984 33.9386C35.0966 33.8178 35.3834 33.7725 35.6703 34.3311C37.7687 38.3165 39.9124 42.2718 42.041 46.227C42.675 47.4046 43.3241 48.567 43.9733 49.7445C44.0488 49.8804 44.079 50.0464 44.1544 50.2729C35.0362 50.2729 26.0086 50.2729 16.7847 50.2729Z" fill="#3F75F6"/>
<path d="M23.3296 4.34475C23.3296 3.202 24.1714 2.31319 25.2448 2.33435C26.3602 2.35552 27.3704 3.35013 27.3283 4.38707C27.2862 5.33937 26.276 6.31282 25.329 6.33398C24.2346 6.33398 23.3296 5.44518 23.3296 4.34475Z" fill="#3F75F6"/>
<path d="M36.3616 2.33433C37.4293 2.33433 38.3087 3.26538 38.3296 4.34456C38.3296 5.42374 37.3875 6.35479 36.3407 6.33363C35.3148 6.31247 34.289 5.29678 34.3308 4.3234C34.3727 3.26538 35.3567 2.31317 36.3616 2.33433Z" fill="#3F75F6"/>
</svg>
