<svg width="25" height="25" viewBox="0 0 25 25" fill="none" xmlns="http://www.w3.org/2000/svg">
<path d="M7.30919 0.846504C7.60966 0.95918 7.76615 1.19079 7.87883 1.47874C8.83657 3.87624 9.79432 6.27373 10.7521 8.67123C10.9774 9.23461 10.8334 9.56638 10.2638 9.79799C9.28728 10.1861 8.31075 10.5867 7.33423 10.9623C7.15269 11.0312 7.11513 11.1251 7.12765 11.3066C7.3843 14.3176 9.62531 17.0406 12.5361 17.8481C13.0056 17.9795 13.5001 18.0359 13.9821 18.1298C14.1449 18.1611 14.2262 18.111 14.2951 17.942C14.6769 16.9529 15.0776 15.9701 15.4719 14.9873C15.6973 14.4177 16.0291 14.28 16.5987 14.5053C19.015 15.4694 21.4313 16.4396 23.8538 17.4036C24.292 17.5789 24.4234 17.7855 24.4172 18.2612C24.3671 21.6227 21.7129 24.4897 18.364 24.7902C17.0056 24.9091 15.6597 24.7776 14.3389 24.496C8.64252 23.269 4.52984 20.014 2.00715 14.7683C1.0807 12.8528 0.598702 10.8058 0.467246 8.67749C0.460986 8.60863 0.442207 8.53977 0.429688 8.47092C0.429688 7.98891 0.429688 7.50065 0.429688 7.01865C0.442207 6.94979 0.467246 6.88093 0.473506 6.81208C0.748936 4.15167 2.67695 1.84181 5.24346 1.11567C5.6879 0.990479 6.15739 0.927881 6.61435 0.833984C6.8397 0.846504 7.07758 0.846504 7.30919 0.846504ZM16.5799 16.014C16.5424 16.1016 16.5173 16.1642 16.486 16.2268C16.1104 17.1595 15.7411 18.0922 15.3655 19.0249C15.2153 19.4005 14.9962 19.5632 14.6269 19.557C13.3937 19.5507 12.1981 19.3316 11.0838 18.7996C7.67851 17.172 5.86944 14.4678 5.69416 10.6869C5.67538 10.2612 5.83188 10.0421 6.2325 9.87937C7.15269 9.51004 8.07288 9.14697 8.98681 8.77765C9.06818 8.74635 9.14956 8.70253 9.2372 8.66497C9.19964 8.57107 9.1746 8.50848 9.14956 8.44588C8.38587 6.53664 7.62218 4.62741 6.85848 2.71192C6.67069 2.24244 6.67069 2.24244 6.16365 2.33007C3.91639 2.71818 2.10731 4.65245 1.86944 6.93101C1.76302 7.93884 1.85692 8.94666 2.00715 9.94197C2.66443 14.1298 4.68008 17.5163 7.99776 20.1204C10.4328 22.0296 13.2122 23.0875 16.2857 23.3692C17.2184 23.4568 18.1511 23.4944 19.0776 23.2503C21.0995 22.7057 22.6582 20.9529 22.9524 18.8809C22.9837 18.6681 22.9461 18.5554 22.7208 18.4678C21.7067 18.0797 20.7051 17.6665 19.7036 17.2659C18.6707 16.8528 17.6378 16.4396 16.5799 16.014Z" fill="#3F75F6"/>
</svg>
